<svg width="632" height="186" viewBox="0 0 632 186" fill="none" xmlns="http://www.w3.org/2000/svg">
<mask id="path-1-inside-1_94_205" fill="white">
<path d="M173.629 107.619L148.905 25.4771C148.877 25.3915 148.783 25.3452 148.698 25.3735C148.635 25.3949 148.591 25.4508 148.587 25.5178L143.782 93.222C143.75 93.6665 143.996 94.0863 144.4 94.274L169.974 106.306L173.328 107.882C173.437 107.935 173.567 107.888 173.619 107.781C173.643 107.73 173.647 107.673 173.629 107.62L173.629 107.619ZM172.87 109.667L168.998 107.85L144.141 96.149C143.712 95.9543 143.207 96.1435 143.011 96.5715C143.003 96.5895 142.996 96.6074 142.989 96.6267L126.63 142.646L116.996 169.777C116.963 169.865 117.009 169.965 117.098 169.998C117.164 170.022 117.235 170.004 117.283 169.955L173.07 110.742C173.325 110.467 173.312 110.039 173.037 109.783C172.987 109.736 172.931 109.697 172.869 109.668L172.87 109.667ZM70.1675 30.6264L141.131 91.8841C141.371 92.0946 141.736 92.0725 141.947 91.8323C142.03 91.737 142.08 91.6176 142.09 91.492L147.089 21.0209C147.099 20.86 146.976 20.722 146.814 20.7123C146.798 20.7116 146.781 20.7116 146.765 20.7137L70.5411 29.4093C70.1578 29.4535 69.885 29.7979 69.9299 30.1783C69.9499 30.3516 70.0342 30.5111 70.1668 30.6264H70.1675ZM140.859 97.2191C140.983 96.8746 140.804 96.4949 140.458 96.372C140.32 96.3223 140.17 96.3202 140.03 96.3658L45.7632 127.15C45.4531 127.253 45.2852 127.587 45.3889 127.895C45.431 128.022 45.5146 128.131 45.6251 128.203L113.124 172.377L113.326 172.516C113.6 172.692 113.966 172.612 114.142 172.339C114.164 172.302 114.183 172.265 114.199 172.224L123.262 146.729L140.859 97.2197V97.2191ZM68.4441 31.5445C68.0663 31.218 67.4972 31.2594 67.1698 31.6356C67.0779 31.7426 67.0116 31.8704 66.9771 32.0077L44.1076 124.623C44.0109 125.012 44.2492 125.405 44.6387 125.5C44.7672 125.533 44.904 125.528 45.0304 125.487L139.838 94.526C140.193 94.41 140.387 94.029 140.271 93.6728C140.232 93.5547 140.163 93.4505 140.069 93.369L68.4441 31.5438V31.5445ZM67.3383 26.7259C67.4571 27.4031 68.0857 27.8684 68.7674 27.7877L141.01 19.5491C141.09 19.5346 141.144 19.4573 141.131 19.3765C141.121 19.3164 141.075 19.2695 141.016 19.2571L63.9151 5.00559C63.7597 4.97453 63.6071 5.07601 63.5753 5.23203C63.5691 5.2693 63.5691 5.30727 63.5753 5.34386L67.339 26.7252L67.3383 26.7259ZM100.518 166.294L43.5882 129.034C43.1275 128.737 42.5134 128.857 42.1978 129.306L24.9721 153.94C24.8153 154.166 24.8726 154.476 25.0985 154.632C25.1537 154.67 25.2145 154.696 25.2795 154.71L108.912 172.227C109.012 172.251 109.115 172.19 109.139 172.088C109.16 172.01 109.124 171.927 109.055 171.883L100.517 166.294L100.518 166.294ZM4.12501 60.6646L64.9139 28.8922C65.4375 28.6147 65.7234 28.0307 65.6198 27.4466L61.872 6.15226C61.8423 5.99417 61.689 5.89131 61.5322 5.92099C61.4769 5.93135 61.4279 5.95758 61.3864 5.99486L3.97375 60.4568C3.92125 60.5058 3.91918 60.5873 3.96753 60.6391C4.00828 60.6812 4.07252 60.6922 4.12501 60.6646ZM41.3309 124.025C41.5298 124.304 41.918 124.37 42.1971 124.171C42.3186 124.085 42.405 123.957 42.4409 123.812L65.1094 32.007C65.1916 31.6695 64.983 31.3312 64.6445 31.2497C64.5002 31.2159 64.3468 31.2332 64.2142 31.3001L0.776439 64.4567C0.0650058 64.8322 -0.206444 65.7117 0.168613 66.4228C0.199004 66.4794 0.232158 66.5339 0.269457 66.5857L15.3961 87.7427L41.3309 124.024V124.025ZM40.8889 128.017C41.2045 127.563 41.2004 126.96 40.8778 126.512L0.805449 70.4406C0.746048 70.3584 0.63139 70.3398 0.548504 70.3999C0.487031 70.4447 0.45733 70.5241 0.479433 70.598L23.1417 152.228C23.2046 152.446 23.4318 152.571 23.6494 152.509C23.7399 152.483 23.8193 152.427 23.8732 152.351L34.1807 137.61L40.8896 128.017L40.8889 128.017Z"/>
</mask>
<path d="M173.629 107.619L148.905 25.4771C148.877 25.3915 148.783 25.3452 148.698 25.3735C148.635 25.3949 148.591 25.4508 148.587 25.5178L143.782 93.222C143.75 93.6665 143.996 94.0863 144.4 94.274L169.974 106.306L173.328 107.882C173.437 107.935 173.567 107.888 173.619 107.781C173.643 107.73 173.647 107.673 173.629 107.62L173.629 107.619ZM172.87 109.667L168.998 107.85L144.141 96.149C143.712 95.9543 143.207 96.1435 143.011 96.5715C143.003 96.5895 142.996 96.6074 142.989 96.6267L126.63 142.646L116.996 169.777C116.963 169.865 117.009 169.965 117.098 169.998C117.164 170.022 117.235 170.004 117.283 169.955L173.07 110.742C173.325 110.467 173.312 110.039 173.037 109.783C172.987 109.736 172.931 109.697 172.869 109.668L172.87 109.667ZM70.1675 30.6264L141.131 91.8841C141.371 92.0946 141.736 92.0725 141.947 91.8323C142.03 91.737 142.08 91.6176 142.09 91.492L147.089 21.0209C147.099 20.86 146.976 20.722 146.814 20.7123C146.798 20.7116 146.781 20.7116 146.765 20.7137L70.5411 29.4093C70.1578 29.4535 69.885 29.7979 69.9299 30.1783C69.9499 30.3516 70.0342 30.5111 70.1668 30.6264H70.1675ZM140.859 97.2191C140.983 96.8746 140.804 96.4949 140.458 96.372C140.32 96.3223 140.17 96.3202 140.03 96.3658L45.7632 127.15C45.4531 127.253 45.2852 127.587 45.3889 127.895C45.431 128.022 45.5146 128.131 45.6251 128.203L113.124 172.377L113.326 172.516C113.6 172.692 113.966 172.612 114.142 172.339C114.164 172.302 114.183 172.265 114.199 172.224L123.262 146.729L140.859 97.2197V97.2191ZM68.4441 31.5445C68.0663 31.218 67.4972 31.2594 67.1698 31.6356C67.0779 31.7426 67.0116 31.8704 66.9771 32.0077L44.1076 124.623C44.0109 125.012 44.2492 125.405 44.6387 125.5C44.7672 125.533 44.904 125.528 45.0304 125.487L139.838 94.526C140.193 94.41 140.387 94.029 140.271 93.6728C140.232 93.5547 140.163 93.4505 140.069 93.369L68.4441 31.5438V31.5445ZM67.3383 26.7259C67.4571 27.4031 68.0857 27.8684 68.7674 27.7877L141.01 19.5491C141.09 19.5346 141.144 19.4573 141.131 19.3765C141.121 19.3164 141.075 19.2695 141.016 19.2571L63.9151 5.00559C63.7597 4.97453 63.6071 5.07601 63.5753 5.23203C63.5691 5.2693 63.5691 5.30727 63.5753 5.34386L67.339 26.7252L67.3383 26.7259ZM100.518 166.294L43.5882 129.034C43.1275 128.737 42.5134 128.857 42.1978 129.306L24.9721 153.94C24.8153 154.166 24.8726 154.476 25.0985 154.632C25.1537 154.67 25.2145 154.696 25.2795 154.71L108.912 172.227C109.012 172.251 109.115 172.19 109.139 172.088C109.16 172.01 109.124 171.927 109.055 171.883L100.517 166.294L100.518 166.294ZM4.12501 60.6646L64.9139 28.8922C65.4375 28.6147 65.7234 28.0307 65.6198 27.4466L61.872 6.15226C61.8423 5.99417 61.689 5.89131 61.5322 5.92099C61.4769 5.93135 61.4279 5.95758 61.3864 5.99486L3.97375 60.4568C3.92125 60.5058 3.91918 60.5873 3.96753 60.6391C4.00828 60.6812 4.07252 60.6922 4.12501 60.6646ZM41.3309 124.025C41.5298 124.304 41.918 124.37 42.1971 124.171C42.3186 124.085 42.405 123.957 42.4409 123.812L65.1094 32.007C65.1916 31.6695 64.983 31.3312 64.6445 31.2497C64.5002 31.2159 64.3468 31.2332 64.2142 31.3001L0.776439 64.4567C0.0650058 64.8322 -0.206444 65.7117 0.168613 66.4228C0.199004 66.4794 0.232158 66.5339 0.269457 66.5857L15.3961 87.7427L41.3309 124.024V124.025ZM40.8889 128.017C41.2045 127.563 41.2004 126.96 40.8778 126.512L0.805449 70.4406C0.746048 70.3584 0.63139 70.3398 0.548504 70.3999C0.487031 70.4447 0.45733 70.5241 0.479433 70.598L23.1417 152.228C23.2046 152.446 23.4318 152.571 23.6494 152.509C23.7399 152.483 23.8193 152.427 23.8732 152.351L34.1807 137.61L40.8896 128.017L40.8889 128.017Z" fill="#E30224" stroke="#332D27" stroke-width="1.51682" mask="url(#path-1-inside-1_94_205)"/>
<path d="M82.0132 57.3685C82.5043 58.0913 82.8987 58.8444 83.186 59.6135L92.139 82.341L93.2697 81.9889C93.6027 81.8861 93.9266 81.7998 94.2402 81.728C94.5344 81.6624 94.8328 81.6113 95.1388 81.5747C95.4089 81.5423 95.681 81.5257 95.9642 81.525C96.2087 81.5257 96.4615 81.545 96.7122 81.5803C96.9436 81.6148 97.1723 81.6893 97.3857 81.8012C97.6088 81.9199 97.8084 82.0704 97.9783 82.2444C98.1759 82.4487 98.3485 82.6724 98.4853 82.9064C98.6538 83.195 98.7961 83.4904 98.9087 83.79C99.0089 84.0469 99.0883 84.3044 99.1422 84.5639C99.1912 84.8 99.2154 85.0361 99.2078 85.266C99.205 85.4848 99.1712 85.6947 99.1118 85.8977C99.0538 86.0972 98.9667 86.287 98.8534 86.4603C98.7367 86.6419 98.5958 86.8103 98.4349 86.9622C98.2587 87.1279 98.066 87.277 97.8547 87.4109C97.624 87.5593 97.3746 87.6919 97.1177 87.8085C96.8276 87.9404 96.5278 88.055 96.2163 88.1558L94.6394 88.6708L96.6763 93.8428C96.8103 94.1783 96.9215 94.518 97.012 94.8563C97.0949 95.1607 97.1515 95.4645 97.1861 95.7668C97.2158 96.0409 97.222 96.3143 97.1985 96.5807C97.1778 96.8286 97.1239 97.0688 97.0452 97.2987C96.9692 97.5134 96.869 97.7177 96.7468 97.9104C96.6287 98.0954 96.4891 98.2673 96.3261 98.4219C96.1645 98.5752 95.9828 98.7132 95.7832 98.8313C95.5746 98.9542 95.3536 99.0591 95.1153 99.1419C94.8874 99.2248 94.6477 99.2848 94.397 99.3221C94.1739 99.3559 93.937 99.3615 93.7007 99.3435C93.47 99.3235 93.2393 99.2765 93.0128 99.2041C92.7793 99.1281 92.5548 99.028 92.3407 98.9065C92.1121 98.7767 91.8966 98.6207 91.7053 98.4495C91.4932 98.2548 91.3005 98.0457 91.1327 97.8247C90.9365 97.5638 90.7638 97.2959 90.6133 97.0184C90.4413 96.7043 90.29 96.3819 90.1608 96.0568L88.0486 90.826L74.2385 95.3388C73.822 95.4783 73.3883 95.5887 72.9421 95.6736C72.5525 95.7475 72.1498 95.7882 71.7382 95.7972C71.3769 95.8069 71.006 95.7779 70.6337 95.7123C70.2925 95.6502 69.9547 95.5494 69.6287 95.412C69.3131 95.2774 69.0119 95.1117 68.7294 94.9191C68.4435 94.7203 68.1824 94.4959 67.9503 94.2522C67.6996 93.9892 67.4771 93.7089 67.2913 93.4162C67.0807 93.0869 66.9025 92.7493 66.7547 92.4069C66.7139 92.313 66.6752 92.2164 66.6441 92.1197C66.6124 92.0245 66.5834 91.9244 66.5606 91.8236C66.5336 91.7221 66.5164 91.622 66.4998 91.5178C66.4832 91.4149 66.4715 91.3079 66.4632 91.2009C66.4563 91.0946 66.4521 90.9834 66.4535 90.873C66.4556 90.7598 66.4583 90.6459 66.4659 90.5285C66.4735 90.4098 66.4853 90.2883 66.4998 90.1668C66.5143 90.0459 66.5329 89.9189 66.553 89.7898L66.6248 89.4094L66.7008 89.0318L66.783 88.6597L66.8693 88.2918L66.9681 87.9052L67.0745 87.4751L67.1933 87.005L67.3231 86.4934L73.7143 60.658C73.8179 60.2362 73.9187 59.8399 74.021 59.4733C74.1232 59.104 74.222 58.7637 74.3221 58.4503C74.4202 58.1375 74.5197 57.8552 74.615 57.5956C74.7137 57.3388 74.8084 57.1082 74.9037 56.9046C74.9935 56.7099 75.104 56.5276 75.2359 56.3544C75.3602 56.1935 75.5018 56.0451 75.6662 55.9139C75.8237 55.7862 75.9998 55.6764 76.1898 55.5839C76.386 55.4914 76.5945 55.4183 76.8135 55.3637C77.4379 55.1939 78.1259 55.1511 78.8318 55.2367C79.4417 55.3237 80.0433 55.5543 80.5648 55.9077C81.1505 56.3178 81.6478 56.8183 82.0187 57.3712L82.0146 57.3692L82.0132 57.3685ZM85.4585 84.421L78.5382 67.288L73.5091 88.1427L85.4592 84.421H85.4585Z" fill="#E6E1D3"/>
<path d="M467.177 112.969L490.628 118.241C491.615 118.463 492.527 118.939 493.273 119.623L532.222 155.305L532.222 155.306L532.378 155.449C533.398 156.385 533.667 157.885 533.036 159.117L527.956 168.957C527.932 169.004 527.906 169.048 527.879 169.087L527.876 169.091C527.467 169.705 526.662 169.9 526.023 169.561L525.898 169.486L483.366 141.187L483.367 141.187C483.047 140.973 482.772 140.701 482.555 140.384L482.466 140.246L466.553 113.832C466.476 113.704 466.451 113.551 466.483 113.406C466.554 113.095 466.864 112.898 467.177 112.969ZM606.824 131.216C606.882 131.214 606.938 131.236 606.979 131.279C607.045 131.348 607.052 131.453 606.998 131.531L606.971 131.563L587.768 149.869C587.621 150.01 587.444 150.117 587.25 150.182L587.248 150.183L530.782 169.754L530.781 169.755C530.705 169.781 530.621 169.776 530.547 169.737L530.546 169.737C530.403 169.663 530.347 169.485 530.421 169.343L530.422 169.341L535.443 159.625C536.109 158.334 537.152 157.276 538.434 156.592L571.815 138.773L571.815 138.772L583.363 132.611C584.106 132.221 584.927 132 585.765 131.964L585.766 131.965L600.093 131.452L606.819 131.216L606.824 131.215L606.824 131.216ZM573.198 76.2462C574.616 76.4595 575.722 77.583 575.915 79.0019L581.86 122.62L581.86 122.621L582.568 127.791C582.759 129.226 582.04 130.63 580.764 131.314L537.89 154.192C536.613 154.873 535.046 154.675 533.98 153.698L495.82 118.748L495.819 118.748C494.855 117.859 494.613 116.431 495.23 115.273L518.94 70.794C519.758 69.2588 521.457 68.4066 523.179 68.667L538.159 70.9397L573.198 76.2462ZM504.529 29.5858C504.744 29.5105 504.98 29.6244 505.055 29.8383L505.056 29.8405L507.263 35.9719L517.445 64.2902L517.445 64.2912C518.03 65.9155 517.901 67.7109 517.088 69.2335L502.262 97.0368L493.046 114.342L493.039 114.354C492.468 115.409 491.264 115.957 490.092 115.692L465.797 110.23C465.194 110.096 464.794 109.523 464.876 108.911L471.78 57.7259L471.78 57.7249L471.831 57.446C471.979 56.8041 472.336 56.2249 472.85 55.8033L472.851 55.8017L504.4 29.6599C504.436 29.6297 504.48 29.6039 504.529 29.5858ZM596.575 44.6961C596.725 44.6037 596.923 44.6505 597.015 44.8021L597.017 44.8054L614.93 73.5236L614.93 73.5245C615.373 74.2329 615.561 75.07 615.463 75.8995L615.463 75.9004L609.556 127.135L609.554 127.134L609.507 127.536C609.426 128.237 608.844 128.773 608.14 128.795L608.138 128.795L602.593 128.995L587.252 129.544C586.089 129.582 585.085 128.737 584.926 127.586L584.01 120.865L578.172 78.0319L578.171 78.0317C577.975 76.599 578.274 75.144 579.02 73.9076L579.02 73.9066L596.465 44.8084L596.465 44.8075C596.493 44.7604 596.531 44.7225 596.571 44.6983L596.575 44.6961ZM549.507 15.6328C550.828 15.2452 552.252 15.4446 553.415 16.179L553.416 16.1792L594.345 41.9918L594.349 41.9945C594.771 42.2545 594.904 42.8065 594.645 43.2294L594.644 43.232L577.134 72.4517C576.51 73.4872 575.359 74.0768 574.166 73.9895L573.927 73.9627L532.271 67.6552L523.79 66.3652L523.789 66.365C521.909 66.0822 520.317 64.854 519.561 63.1293L519.422 62.7787L507.122 28.5734L507.118 28.5624L507.116 28.56C507.116 28.5576 507.115 28.5545 507.114 28.5495C507.034 28.2867 507.181 28.008 507.445 27.9263L549.507 15.6337L549.507 15.6328Z" fill="#E30224" stroke="#332D27" stroke-width="0.728299"/>
<path d="M551.595 93.4545C551.662 94.2708 551.628 95.0669 551.493 95.8256L547.912 118.48L549.079 118.717C549.422 118.788 549.75 118.868 550.06 118.955C550.35 119.037 550.638 119.134 550.924 119.246C551.176 119.345 551.423 119.458 551.671 119.588C551.885 119.702 552.097 119.835 552.298 119.979C552.483 120.115 552.646 120.282 552.776 120.471C552.912 120.671 553.011 120.886 553.073 121.107C553.143 121.364 553.182 121.626 553.184 121.881C553.187 122.193 553.163 122.5 553.111 122.796C553.07 123.051 553.01 123.297 552.927 123.534C552.851 123.749 552.754 123.952 552.632 124.136C552.519 124.312 552.384 124.467 552.23 124.605C552.079 124.741 551.907 124.855 551.721 124.943C551.527 125.037 551.319 125.109 551.102 125.158C550.865 125.212 550.621 125.244 550.369 125.255C550.093 125.269 549.807 125.261 549.524 125.237C549.203 125.21 548.884 125.165 548.56 125.102L546.921 124.791L546.106 129.945C546.055 130.28 545.981 130.608 545.891 130.926C545.811 131.212 545.708 131.486 545.586 131.747C545.474 131.984 545.342 132.21 545.188 132.416C545.046 132.608 544.878 132.779 544.693 132.929C544.518 133.068 544.328 133.188 544.124 133.288C543.927 133.384 543.72 133.459 543.499 133.51C543.28 133.56 543.052 133.588 542.818 133.591C542.574 133.594 542.327 133.578 542.077 133.534C541.836 133.497 541.596 133.434 541.358 133.348C541.146 133.272 540.936 133.166 540.738 133.042C540.545 132.92 540.367 132.774 540.206 132.61C540.039 132.44 539.893 132.254 539.766 132.056C539.631 131.844 539.522 131.618 539.439 131.389C539.352 131.133 539.288 130.872 539.252 130.614C539.211 130.311 539.194 130.013 539.202 129.718C539.21 129.382 539.24 129.049 539.289 128.725L540.068 123.487L525.709 120.76C525.274 120.68 524.839 120.569 524.405 120.432C524.028 120.311 523.654 120.157 523.289 119.975C522.967 119.815 522.658 119.619 522.365 119.393C522.097 119.185 521.852 118.946 521.635 118.683C521.426 118.427 521.246 118.152 521.096 117.864C520.945 117.57 520.83 117.267 520.749 116.96C520.661 116.63 520.608 116.298 520.592 115.974C520.573 115.608 520.587 115.251 520.629 114.904C520.641 114.809 520.656 114.711 520.677 114.618C520.697 114.526 520.722 114.431 520.752 114.339C520.78 114.244 520.815 114.155 520.853 114.062C520.891 113.97 520.934 113.878 520.98 113.787C521.028 113.697 521.08 113.605 521.137 113.515C521.196 113.424 521.255 113.332 521.321 113.24C521.387 113.147 521.458 113.054 521.532 112.962C521.605 112.869 521.686 112.775 521.769 112.679L522.022 112.402L522.279 112.13L522.538 111.865L522.798 111.605L523.079 111.337L523.388 111.036L523.728 110.708L524.099 110.352L542.677 92.2794C542.979 91.9839 543.266 91.708 543.54 91.457C543.815 91.2036 544.073 90.9721 544.317 90.764C544.561 90.5551 544.79 90.3708 545.003 90.2041C545.219 90.0406 545.418 89.8971 545.603 89.7749C545.779 89.6583 545.968 89.5607 546.17 89.4811C546.36 89.4076 546.558 89.3523 546.768 89.322C546.97 89.2914 547.179 89.2833 547.393 89.296C547.611 89.3117 547.83 89.3488 548.049 89.4055C548.681 89.5563 549.305 89.8407 549.879 90.2369C550.37 90.5905 550.781 91.0571 551.059 91.5866C551.367 92.1918 551.55 92.8303 551.598 93.4519L551.595 93.4486L551.595 93.4545ZM541.018 117.077L543.568 99.92L528.685 114.568L541.018 117.078L541.018 117.077Z" fill="#E6E1D3"/>
<path d="M302.118 105.881V105.882L351.528 109.439C353.808 109.606 355.923 110.683 357.396 112.428L357.521 112.577H357.522L373.165 131.126C373.206 131.175 373.198 131.245 373.152 131.283L373.145 131.291C373.141 131.294 373.13 131.301 373.11 131.305L373.107 131.306L271.22 152.079L271.158 152.078C271.1 152.065 271.051 152.02 271.038 151.956L271.037 151.953V151.902C271.04 151.886 271.046 151.87 271.056 151.855L271.06 151.85L299.53 107.186L299.531 107.187C300.092 106.313 301.081 105.813 302.118 105.881ZM237.536 52.252L237.538 52.2529L264.115 58.2148C265.635 58.5579 266.972 59.4564 267.861 60.7334V60.7344L297.233 103.092C297.755 103.841 297.807 104.813 297.38 105.606L297.288 105.763L268.659 150.687C268.642 150.714 268.613 150.735 268.577 150.747C268.498 150.77 268.415 150.726 268.392 150.648L268.391 150.646L237.432 52.3994L237.424 52.374C237.408 52.3255 237.434 52.2707 237.484 52.252C237.499 52.2481 237.517 52.2475 237.536 52.252ZM386.286 106.467L386.287 106.47C386.318 106.577 386.308 106.696 386.257 106.803L386.256 106.805L375.552 129.442L375.548 129.449C375.503 129.535 375.401 129.571 375.314 129.53H375.313C375.279 129.514 375.255 129.495 375.238 129.478L358.053 109.085C357.432 108.349 357.104 107.41 357.132 106.446L359.895 11.4736L386.286 106.467ZM355.707 6.10645C356.227 5.79646 356.903 5.96402 357.22 6.47949C357.323 6.66073 357.378 6.86769 357.376 7.08008L354.532 104.486C354.489 105.812 353.384 106.855 352.057 106.82H352.046C352.051 106.82 352.053 106.821 352.029 106.818C352.016 106.817 351.988 106.814 351.954 106.812H351.955L303.541 103.325H303.54C301.722 103.195 300.05 102.299 298.936 100.87L298.72 100.577L270.501 59.8916C269.814 58.9024 270.059 57.5416 271.049 56.8535L271.063 56.8428C271.089 56.8258 271.118 56.8084 271.153 56.7891L271.16 56.7852L271.168 56.7812L355.708 6.10742L355.707 6.10645ZM268.979 54.9883C267.731 55.7351 266.245 55.9761 264.825 55.6621L264.82 55.6611L264.713 55.6387H264.714L237.496 49.5215L251.452 26.0381L251.451 26.0371C251.695 25.6282 252.102 25.342 252.568 25.248L252.567 25.2471L351.544 5.49707L268.979 54.9883ZM351.923 5.41602H351.921L351.922 5.41504L351.923 5.41602Z" fill="#E30224" stroke="#332D27" stroke-width="0.838067"/>
<path d="M314.791 70.6992C314.938 71.0692 315.128 71.4201 315.357 71.7466C315.594 72.08 315.868 72.389 316.171 72.6636C316.838 73.2556 317.605 73.7247 318.437 74.0459C318.821 74.1931 319.221 74.2961 319.631 74.3518C320.023 74.4052 320.42 74.4097 320.814 74.364C321.212 74.3182 321.604 74.2244 321.981 74.0871L322.113 74.0367L322.125 74.0474C322.514 73.8948 322.89 73.7117 323.248 73.4989C323.639 73.2678 324.013 73.0099 324.369 72.7269C324.76 72.4187 325.133 72.0869 325.485 71.7352C325.856 71.3698 326.228 70.9639 326.598 70.523C326.975 70.0645 327.365 69.5656 327.763 69.024C328.162 68.4832 328.571 67.8973 328.99 67.2672C329.409 66.6355 329.836 65.965 330.272 65.2533C330.708 64.5408 331.153 63.7871 331.607 62.9883C332.036 62.2354 332.433 61.5107 332.798 60.8173C333.163 60.1238 333.497 59.4594 333.794 58.8247C334.096 58.19 334.364 57.5843 334.6 57.0053C334.835 56.4263 335.044 55.8748 335.222 55.353C335.39 54.8571 335.536 54.3536 335.654 53.8433C335.762 53.3856 335.844 52.9202 335.897 52.4534C335.947 52.0285 335.967 51.6005 335.956 51.1741C335.945 50.7805 335.901 50.3883 335.825 50.0023C335.678 49.2685 335.372 48.5751 334.932 47.9694C334.7 47.652 334.44 47.3583 334.152 47.0905C333.84 46.7999 333.505 46.5375 333.149 46.3056C332.787 46.0615 332.403 45.8532 332.003 45.6823C331.636 45.5259 331.252 45.4123 330.859 45.3413C330.482 45.2734 330.1 45.2544 329.72 45.2834C329.333 45.3116 328.951 45.3863 328.584 45.5069C328.435 45.561 328.289 45.6076 328.134 45.6732C327.978 45.7395 327.829 45.8097 327.681 45.8883C327.532 45.9661 327.379 46.0531 327.232 46.1454C327.083 46.2369 326.932 46.3399 326.783 46.4475C326.2 46.8785 325.65 47.353 325.141 47.8679C324.52 48.4934 323.934 49.1518 323.383 49.8406C322.777 50.5897 322.149 51.4365 321.5 52.3802C320.851 53.3238 320.179 54.3658 319.485 55.5048C319.014 56.2798 318.576 57.0274 318.167 57.7567C317.757 58.4845 317.383 59.1886 317.035 59.8622C316.684 60.535 316.374 61.1842 316.092 61.8113C315.809 62.4399 315.564 63.0379 315.349 63.6093C315.136 64.1814 314.956 64.7353 314.81 65.2693C314.671 65.7773 314.561 66.293 314.482 66.8133C314.41 67.2832 314.372 67.7577 314.369 68.2322C314.364 68.6647 314.397 69.098 314.467 69.5252C314.533 69.9272 314.642 70.3201 314.793 70.6977L314.791 70.6992ZM307.103 62.8312C307.189 62.3857 307.292 61.9371 307.407 61.4848C307.521 61.0339 307.645 60.5838 307.792 60.1261C307.938 59.6684 308.096 59.2107 308.271 58.75C308.447 58.2892 308.637 57.8254 308.84 57.3593C309.042 56.8932 309.265 56.4378 309.488 55.9678C309.714 55.4979 309.954 55.0272 310.209 54.552C310.465 54.076 310.726 53.6007 311.011 53.1194C311.296 52.6388 311.592 52.1574 311.899 51.6745C312.292 51.0536 312.677 50.4517 313.07 49.875C313.463 49.2982 313.848 48.7436 314.232 48.2158C314.616 47.6879 314.995 47.1783 315.373 46.6962C315.752 46.2133 316.127 45.7441 316.502 45.3101C316.875 44.876 317.247 44.4572 317.615 44.0651C317.983 43.673 318.347 43.3099 318.713 42.9673C319.079 42.6248 319.438 42.3082 319.798 42.0153C320.159 41.7224 320.516 41.4577 320.872 41.2097C321.169 41.0122 321.466 40.8268 321.771 40.6544C322.074 40.482 322.371 40.3225 322.673 40.1768C322.975 40.0311 323.278 39.8976 323.583 39.7786C323.888 39.6604 324.194 39.5536 324.501 39.4598L324.524 39.4445C324.834 39.3491 325.145 39.2736 325.456 39.2011C325.768 39.1287 326.082 39.073 326.394 39.0295C326.707 38.986 327.025 38.957 327.34 38.9418C327.656 38.9265 327.975 38.9212 328.292 38.9319C328.93 38.9494 329.564 39.0196 330.19 39.1401C330.83 39.2629 331.461 39.4346 332.076 39.652C332.719 39.8778 333.345 40.1471 333.951 40.4576C334.596 40.7894 335.221 41.1571 335.821 41.5622C336.231 41.8383 336.627 42.1213 336.993 42.4189C337.359 42.7148 337.711 43.0192 338.044 43.332C338.378 43.6432 338.691 43.9621 338.988 44.2955C339.284 44.6281 339.561 44.9645 339.82 45.3207C340.08 45.6762 340.317 46.0271 340.538 46.3933C340.759 46.7579 340.961 47.1333 341.146 47.5162C341.331 47.8976 341.495 48.2875 341.644 48.6864C341.791 49.0869 341.92 49.492 342.03 49.907C342.139 50.3205 342.232 50.7461 342.306 51.1779C342.38 51.6127 342.437 52.0575 342.476 52.503C342.515 52.9508 342.534 53.4085 342.54 53.8814C342.546 54.3536 342.529 54.8335 342.496 55.3202C342.431 56.2211 342.296 57.1152 342.096 57.9955C341.867 58.9971 341.581 59.9858 341.238 60.9546C340.876 61.9898 340.433 63.0776 339.911 64.2173C339.387 65.3578 338.785 66.5516 338.102 67.7981C337.73 68.4755 337.357 69.127 336.987 69.751C336.617 70.3758 336.249 70.9701 335.883 71.5361C335.515 72.1036 335.149 72.6422 334.785 73.1526C334.419 73.6644 334.058 74.145 333.696 74.5974C333.345 75.0467 332.97 75.4777 332.576 75.8889C332.186 76.2947 331.786 76.68 331.376 77.0454C330.968 77.41 330.544 77.7556 330.102 78.0798C329.663 78.4025 329.212 78.7031 328.751 78.9815C328.582 79.0799 328.413 79.1753 328.245 79.2668C328.076 79.3584 327.906 79.4468 327.732 79.5308C327.558 79.6139 327.389 79.6948 327.219 79.7733C327.05 79.8519 326.877 79.9305 326.702 79.9938C326.28 80.1639 325.863 80.3112 325.427 80.4431C324.992 80.5743 324.562 80.6819 324.125 80.7681C323.689 80.8535 323.251 80.9138 322.807 80.9603C321.094 81.1259 319.366 80.9664 317.712 80.4927C317.09 80.3134 316.479 80.0907 315.885 79.8283C315.269 79.5529 314.671 79.2416 314.095 78.8923C313.427 78.4902 312.792 78.0402 312.19 77.5458C311.605 77.0607 311.06 76.532 310.557 75.9637C310.058 75.3969 309.604 74.7919 309.201 74.1542C308.791 73.505 308.433 72.8253 308.128 72.1204C307.82 71.4087 307.564 70.6764 307.363 69.928C307.167 69.1789 307.023 68.416 306.938 67.6456C306.853 66.8598 306.823 66.0664 306.851 65.2769C306.883 64.4568 306.967 63.6391 307.105 62.8289L307.103 62.8312Z" fill="#E6E1D3"/>
</svg>
