<svg width="174" height="168" viewBox="0 0 174 168" fill="none" xmlns="http://www.w3.org/2000/svg">
<path d="M173.629 102.619L148.905 20.4771C148.877 20.3915 148.783 20.3452 148.698 20.3735C148.635 20.3949 148.591 20.4508 148.587 20.5178L143.782 88.222C143.75 88.6665 143.996 89.0863 144.4 89.274L169.974 101.306L173.328 102.882C173.437 102.935 173.567 102.888 173.619 102.781C173.643 102.73 173.647 102.673 173.629 102.62L173.629 102.619ZM172.87 104.667L168.998 102.85L144.141 91.149C143.712 90.9543 143.207 91.1435 143.011 91.5715C143.003 91.5895 142.996 91.6074 142.989 91.6267L126.63 137.646L116.996 164.777C116.963 164.865 117.009 164.965 117.098 164.998C117.164 165.022 117.235 165.004 117.283 164.955L173.07 105.742C173.325 105.467 173.312 105.039 173.037 104.783C172.987 104.736 172.931 104.697 172.869 104.668L172.87 104.667ZM70.1675 25.6264L141.131 86.8841C141.371 87.0946 141.736 87.0725 141.947 86.8323C142.03 86.737 142.08 86.6176 142.09 86.492L147.089 16.0209C147.099 15.86 146.976 15.722 146.814 15.7123C146.798 15.7116 146.781 15.7116 146.765 15.7137L70.5411 24.4093C70.1578 24.4535 69.885 24.7979 69.9299 25.1783C69.9499 25.3516 70.0342 25.5111 70.1668 25.6264H70.1675ZM140.859 92.2191C140.983 91.8746 140.804 91.4949 140.458 91.372C140.32 91.3223 140.17 91.3202 140.03 91.3658L45.7632 122.15C45.4531 122.253 45.2852 122.587 45.3889 122.895C45.431 123.022 45.5146 123.131 45.6251 123.203L113.124 167.377L113.326 167.516C113.6 167.692 113.966 167.612 114.142 167.339C114.164 167.302 114.183 167.265 114.199 167.224L123.262 141.729L140.859 92.2197V92.2191ZM68.4441 26.5445C68.0663 26.218 67.4972 26.2594 67.1698 26.6356C67.0779 26.7426 67.0116 26.8704 66.9771 27.0077L44.1076 119.623C44.0109 120.012 44.2492 120.405 44.6387 120.5C44.7672 120.533 44.904 120.528 45.0304 120.487L139.838 89.526C140.193 89.41 140.387 89.029 140.271 88.6728C140.232 88.5547 140.163 88.4505 140.069 88.369L68.4441 26.5438V26.5445ZM67.3383 21.7259C67.4571 22.4031 68.0857 22.8684 68.7674 22.7877L141.01 14.5491C141.09 14.5346 141.144 14.4573 141.131 14.3765C141.121 14.3164 141.075 14.2695 141.016 14.2571L63.9151 0.00559326C63.7597 -0.0254722 63.6071 0.0760084 63.5753 0.232026C63.5691 0.269305 63.5691 0.307274 63.5753 0.343862L67.339 21.7252L67.3383 21.7259ZM100.518 161.294L43.5882 124.034C43.1275 123.737 42.5134 123.857 42.1978 124.306L24.9721 148.94C24.8153 149.166 24.8726 149.476 25.0985 149.632C25.1537 149.67 25.2145 149.696 25.2795 149.71L108.912 167.227C109.012 167.251 109.115 167.19 109.139 167.088C109.16 167.01 109.124 166.927 109.055 166.883L100.517 161.294L100.518 161.294ZM4.12501 55.6646L64.9139 23.8922C65.4375 23.6147 65.7234 23.0307 65.6198 22.4466L61.872 1.15226C61.8423 0.994167 61.689 0.891305 61.5322 0.92099C61.4769 0.931345 61.4279 0.957578 61.3864 0.994857L3.97375 55.4568C3.92125 55.5058 3.91918 55.5873 3.96753 55.6391C4.00828 55.6812 4.07252 55.6922 4.12501 55.6646ZM41.3309 119.025C41.5298 119.304 41.918 119.37 42.1971 119.171C42.3186 119.085 42.405 118.957 42.4409 118.812L65.1094 27.007C65.1916 26.6695 64.983 26.3312 64.6445 26.2497C64.5002 26.2159 64.3468 26.2332 64.2142 26.3001L0.776439 59.4567C0.0650058 59.8322 -0.206444 60.7117 0.168613 61.4228C0.199004 61.4794 0.232158 61.5339 0.269457 61.5857L15.3961 82.7427L41.3309 119.024V119.025ZM40.8889 123.017C41.2045 122.563 41.2004 121.96 40.8778 121.512L0.805449 65.4406C0.746048 65.3584 0.63139 65.3398 0.548504 65.3999C0.487031 65.4447 0.45733 65.5241 0.479433 65.598L23.1417 147.228C23.2046 147.446 23.4318 147.571 23.6494 147.509C23.7399 147.483 23.8193 147.427 23.8732 147.351L34.1807 132.61L40.8896 123.017L40.8889 123.017Z" fill="#E30224"/>
<path d="M67.7238 96.0396C68.8654 93.959 69.8991 92.0972 70.8248 90.4541C71.7422 88.7822 72.539 87.2859 73.2154 85.9652C73.9121 84.6073 74.4614 83.386 74.8632 82.3013C75.2566 81.1879 75.4816 80.1391 75.5381 79.155C75.6235 78.1626 75.5194 77.1629 75.226 76.156C75.0164 75.4367 74.7354 74.8476 74.3832 74.3884C74.0596 73.9208 73.6791 73.5791 73.2417 73.3633C72.7959 73.1187 72.2931 72.9999 71.7333 73.0069C71.1939 72.9768 70.6078 73.054 69.9748 73.2385C69.3419 73.4229 68.7629 73.6853 68.2378 74.0256C67.7331 74.3287 67.2722 74.7283 66.8549 75.2245C66.4581 75.6835 66.1193 76.2347 65.8387 76.8783C65.6684 77.365 65.5838 77.7173 65.5849 77.9355C65.5861 78.1536 65.6346 78.3736 65.7304 78.5954L65.6027 78.9603L65.1946 78.8452L61.5936 77.4131C61.8708 76.1151 62.3421 74.9477 63.0076 73.9111C63.7019 72.866 64.5555 71.993 65.5685 71.292C66.5731 70.5623 67.694 70.0172 68.9311 69.6567C70.5134 69.1956 72.0009 69.1054 73.3937 69.3862C74.8152 69.6587 76.0532 70.2655 77.1078 71.2066C78.1624 72.1478 78.9202 73.4096 79.3813 74.9919C79.7083 76.1139 79.8357 77.2472 79.7635 78.3919C79.7201 79.5282 79.5142 80.6962 79.146 81.896C78.7693 83.067 78.2818 84.2859 77.6834 85.5527C77.085 86.8195 76.3984 88.1588 75.6238 89.5706C74.8491 90.9824 74.0235 92.4871 73.1469 94.0847L82.1229 91.469C82.612 91.3265 82.9489 91.1971 83.1335 91.0809C83.3181 90.9647 83.4758 90.8095 83.6065 90.6153L83.9948 90.5021L84.108 90.8905L85.1392 94.4291L68.6544 99.233L67.7238 96.0396ZM89.9294 84.84L97.3339 67.513L99.0575 70.0539L91.6279 87.2946L89.9294 84.84ZM98.4395 91.0683C96.5983 91.6048 94.8465 91.5379 93.1841 90.8675C91.5505 90.1887 90.0765 88.9328 88.762 87.0997C87.4679 85.2295 86.3933 82.8272 85.5382 79.8928C84.6914 76.9871 84.3115 74.3979 84.3983 72.1253C84.5139 69.8443 85.0741 67.9644 86.0789 66.4855C87.1041 64.9695 88.5373 63.9432 90.3786 63.4066C92.2198 62.8701 93.9656 62.97 95.6159 63.7063C97.2867 64.4055 98.7691 65.6902 100.063 67.5604C101.386 69.4222 102.471 71.8059 103.318 74.7116C104.173 77.6461 104.542 80.2538 104.427 82.5348C104.332 84.7786 103.763 86.6298 102.721 88.0883C101.708 89.5384 100.281 90.5317 98.4395 91.0683ZM97.4712 87.7454C98.5356 87.4352 99.2957 86.7768 99.7514 85.77C100.228 84.7261 100.426 83.3729 100.348 81.7104C100.269 80.0478 99.9067 78.109 99.2611 75.8937C98.6323 73.736 97.9046 71.9349 97.0779 70.4904C96.2512 69.0458 95.3566 68.0112 94.3943 67.3865C93.4523 66.7246 92.4491 66.5488 91.3846 66.8589C90.3489 67.1608 89.5972 67.848 89.1295 68.9207C88.6534 69.9646 88.4547 71.3178 88.5334 72.9803C88.6121 74.6428 88.9659 76.553 89.5946 78.7107C90.2402 80.9259 90.9763 82.7558 91.803 84.2003C92.6298 85.6449 93.5243 86.6795 94.4867 87.3042C95.4406 87.9002 96.4355 88.0473 97.4712 87.7454Z" fill="white"/>
</svg>
